<svg width="24" height="24" viewBox="0 0 24 24" fill="none" xmlns="http://www.w3.org/2000/svg">
<path fill-rule="evenodd" clip-rule="evenodd" d="M17.3378 4.53702C15.8966 4.53702 14.728 5.70596 14.728 7.14772C14.728 8.58948 15.8966 9.75841 17.3378 9.75841C18.7793 9.75841 19.9485 8.5892 19.9485 7.14772C19.9485 5.70624 18.7793 4.53702 17.3378 4.53702ZM12.9758 7.14772C12.9758 4.73882 14.9284 2.78485 17.3378 2.78485C19.747 2.78485 21.7007 4.73854 21.7007 7.14772C21.7007 9.5569 19.747 11.5106 17.3378 11.5106C14.9284 11.5106 12.9758 9.55662 12.9758 7.14772Z" fill="white"/>
<path fill-rule="evenodd" clip-rule="evenodd" d="M7.22657 4.53684C5.78609 4.53684 4.61674 5.70591 4.61674 7.14753C4.61674 8.58916 5.78609 9.75823 7.22657 9.75823C8.66877 9.75823 9.83727 8.58916 9.83727 7.14753C9.83727 5.70591 8.66877 4.53684 7.22657 4.53684ZM2.86456 7.14753C2.86456 4.73849 4.81811 2.78467 7.22657 2.78467C9.63675 2.78467 11.5894 4.73849 11.5894 7.14753C11.5894 9.55657 9.63675 11.5104 7.22657 11.5104C4.81811 11.5104 2.86456 9.55657 2.86456 7.14753Z" fill="white"/>
<path fill-rule="evenodd" clip-rule="evenodd" d="M17.3378 14.5863C15.8966 14.5863 14.728 15.7553 14.728 17.197C14.728 18.6385 15.8964 19.8069 17.3378 19.8069C18.7796 19.8069 19.9485 18.6382 19.9485 17.197C19.9485 15.7556 18.7793 14.5863 17.3378 14.5863ZM12.9758 17.197C12.9758 14.7881 14.9284 12.8342 17.3378 12.8342C19.747 12.8342 21.7007 14.7879 21.7007 17.197C21.7007 19.6065 19.7467 21.559 17.3378 21.559C14.9287 21.559 12.9758 19.6062 12.9758 17.197Z" fill="white"/>
<path fill-rule="evenodd" clip-rule="evenodd" d="M7.22651 14.5863C5.78603 14.5863 4.61667 15.7554 4.61667 17.197C4.61667 18.6384 5.78575 19.8069 7.22651 19.8069C8.66899 19.8069 9.83721 18.6384 9.83721 17.197C9.83721 15.7554 8.66871 14.5863 7.22651 14.5863ZM2.8645 17.197C2.8645 14.788 4.81805 12.8342 7.22651 12.8342C9.63669 12.8342 11.5894 14.788 11.5894 17.197C11.5894 19.6064 9.63641 21.559 7.22651 21.559C4.81833 21.559 2.8645 19.6064 2.8645 17.197Z" fill="white"/>
</svg>
