<svg width="24" height="24" viewBox="0 0 24 24" fill="none" xmlns="http://www.w3.org/2000/svg">
<path fill-rule="evenodd" clip-rule="evenodd" d="M6.83306 4.88312C7.96287 3.42652 9.71697 2.32367 12.1221 2.32367C14.5268 2.32367 16.2809 3.42656 17.4107 4.88309C18.5193 6.31206 19.0353 8.08576 19.0353 9.52976C19.0353 9.93794 19.0229 10.2419 19.0135 10.4698C19.0116 10.5164 19.0098 10.5598 19.0083 10.6003C18.9992 10.8446 19.0018 10.9482 19.0179 11.0475C19.0563 11.2855 19.179 11.5873 19.7262 12.7933C19.7329 12.808 19.7392 12.8229 19.745 12.838C20.1539 13.8902 20.0648 14.871 19.5714 15.7033C19.1042 16.4913 18.3258 17.0618 17.5034 17.472C15.8589 18.2924 13.6962 18.6422 12.1221 18.6422C10.5475 18.6422 8.38466 18.2924 6.74013 17.472C5.91773 17.0618 5.13929 16.4913 4.67222 15.7032C4.1789 14.8708 4.09007 13.89 4.4992 12.8378C4.50504 12.8228 4.51128 12.8079 4.51793 12.7933C5.06516 11.5873 5.18784 11.2855 5.22629 11.0475C5.24233 10.9482 5.24498 10.8446 5.23584 10.6003C5.23433 10.5598 5.23255 10.5164 5.23064 10.4698C5.22131 10.2419 5.20886 9.93795 5.20886 9.52976C5.20886 8.08586 5.72463 6.31215 6.83306 4.88312ZM8.21757 5.95702C7.35956 7.0632 6.96103 8.45449 6.96103 9.52976C6.96103 9.89923 6.97188 10.1652 6.98112 10.3919C6.98313 10.4412 6.98506 10.4886 6.98679 10.5348C6.99626 10.788 7.00202 11.0424 6.95603 11.327C6.87228 11.8454 6.61979 12.4018 6.14543 13.447L6.12421 13.4938C5.90684 14.067 5.9811 14.475 6.17957 14.8099C6.4067 15.1931 6.85416 15.5708 7.5223 15.9041C8.85882 16.5709 10.7355 16.89 12.1221 16.89C13.5082 16.89 15.3847 16.5709 16.7212 15.9041C17.3893 15.5708 17.8369 15.1931 18.0642 14.8098C18.2627 14.4748 18.3371 14.0668 18.1199 13.4937L18.0987 13.447C17.6244 12.4018 17.3719 11.8454 17.2881 11.327C17.2422 11.0424 17.2479 10.788 17.2574 10.5348C17.2591 10.4886 17.261 10.4412 17.2631 10.3919C17.2723 10.1652 17.2831 9.89924 17.2831 9.52976C17.2831 8.45459 16.8844 7.06329 16.0263 5.95705C15.1895 4.87837 13.925 4.07584 12.1221 4.07584C10.3187 4.07584 9.05419 4.87841 8.21757 5.95702Z" fill="white"/>
<path fill-rule="evenodd" clip-rule="evenodd" d="M9.34576 19.6283C9.70661 19.306 10.2604 19.3372 10.5828 19.6981C11.4712 20.6927 12.7779 20.6843 13.6615 19.6973C13.9842 19.3368 14.5381 19.3062 14.8985 19.6289C15.259 19.9517 15.2897 20.5055 14.9669 20.866C13.3937 22.6233 10.8679 22.6474 9.27599 20.8653C8.95367 20.5044 8.9849 19.9506 9.34576 19.6283Z" fill="white"/>
<path d="M19.7184 5.36931C19.7184 7.46599 18.0187 9.16568 15.922 9.16568C13.8253 9.16568 12.1256 7.46599 12.1256 5.36931C12.1256 3.27263 13.8253 1.57294 15.922 1.57294C18.0187 1.57294 19.7184 3.27263 19.7184 5.36931Z" fill="#FF0606"/>
<path fill-rule="evenodd" clip-rule="evenodd" d="M15.922 7.85156C17.2929 7.85156 18.4043 6.74022 18.4043 5.36931C18.4043 3.9984 17.2929 2.88707 15.922 2.88707C14.5511 2.88707 13.4398 3.9984 13.4398 5.36931C13.4398 6.74022 14.5511 7.85156 15.922 7.85156ZM15.922 9.16568C18.0187 9.16568 19.7184 7.46599 19.7184 5.36931C19.7184 3.27263 18.0187 1.57294 15.922 1.57294C13.8253 1.57294 12.1256 3.27263 12.1256 5.36931C12.1256 7.46599 13.8253 9.16568 15.922 9.16568Z" fill="#222232"/>
</svg>
