<?xml version="1.0" standalone="no"?>
<!DOCTYPE svg PUBLIC "-//W3C//DTD SVG 20010904//EN"
 "http://www.w3.org/TR/2001/REC-SVG-20010904/DTD/svg10.dtd">
<svg version="1.0" xmlns="http://www.w3.org/2000/svg"
 width="512.000000pt" height="512.000000pt" viewBox="0 0 512.000000 512.000000"
 preserveAspectRatio="xMidYMid meet">

<g transform="translate(0.000000,512.000000) scale(0.100000,-0.100000)"
fill="#000000" stroke="none">
<path d="M865 5106 c-119 -30 -221 -113 -273 -224 l-27 -57 0 -2265 0 -2265
32 -66 c54 -110 160 -192 281 -218 70 -15 3274 -16 3353 -1 131 24 234 105
292 228 l32 67 0 2255 0 2255 -32 67 c-58 123 -161 204 -292 228 -85 16 -3301
12 -3366 -4z m857 -206 c3 -57 9 -77 33 -111 17 -23 50 -53 74 -66 l44 -23
684 0 c594 0 688 2 721 15 76 32 121 101 129 197 l6 58 395 0 c276 0 407 -4
434 -12 53 -16 131 -87 154 -140 18 -41 19 -116 22 -1960 l2 -1918 -1860 0
-1860 0 2 1918 c3 1814 4 1919 21 1956 29 65 63 102 119 130 l52 26 412 0 412
0 4 -70z m1548 31 c0 -24 -8 -48 -21 -65 l-20 -26 -661 0 c-751 0 -698 -6
-698 82 l0 48 700 0 700 0 0 -39z m1145 -4361 c0 -155 -4 -226 -14 -254 -17
-49 -73 -111 -125 -139 l-41 -22 -1660 -3 c-1852 -3 -1705 -8 -1788 67 -72 65
-80 97 -85 333 -2 114 -2 215 2 223 5 13 209 15 1858 13 l1853 -3 0 -215z"/>
<path d="M3366 4089 c-253 -85 -464 -226 -661 -440 -38 -41 -73 -73 -79 -73
-6 1 -67 13 -136 28 -319 65 -675 60 -994 -16 -73 -17 -135 -23 -314 -27 -220
-6 -224 -6 -243 -30 -18 -22 -19 -54 -19 -998 l0 -974 25 -24 24 -25 1591 0
1591 0 24 25 25 24 0 974 c0 944 -1 976 -19 998 -19 23 -25 24 -185 27 l-166
3 -2 186 -3 186 -27 20 -28 21 -97 -28 c-54 -16 -106 -31 -115 -33 -16 -5 -18
3 -18 65 0 81 -12 115 -47 131 -31 14 -24 15 -127 -20z m34 -286 c0 -145 0
-146 -20 -128 -26 24 -62 22 -140 -8 -188 -70 -332 -172 -458 -322 l-42 -50 0
87 0 87 106 111 c156 162 286 255 473 337 42 18 77 33 79 33 1 0 2 -66 2 -147z
m290 -740 l0 -728 -175 -84 c-287 -138 -532 -284 -697 -417 -103 -84 -103 -58
0 59 153 176 350 323 574 431 107 51 129 66 138 90 6 19 10 263 10 682 l0 653
63 20 c34 11 67 20 74 20 9 1 12 -169 13 -726z m-290 325 c0 -184 -1 -191 -18
-175 -26 24 -60 21 -153 -13 -157 -57 -296 -153 -421 -290 l-68 -74 0 188 c0
183 1 189 18 173 31 -28 67 -21 104 20 107 119 138 149 199 194 70 52 205 120
276 138 23 7 45 16 48 21 3 6 8 10 11 10 2 0 4 -86 4 -192z m-1205 111 c115
-10 264 -35 353 -58 l42 -12 0 -760 c0 -722 -1 -760 -18 -755 -48 16 -208 46
-297 57 -247 29 -622 3 -817 -57 -17 -5 -18 35 -18 755 l0 759 93 21 c246 55
441 70 662 50z m-895 -901 c0 -447 4 -818 8 -824 4 -6 17 -16 30 -23 18 -10
46 -6 163 24 78 19 192 42 255 50 225 29 514 14 736 -38 l93 -22 3 -53 3 -52
-760 0 -761 0 0 875 0 875 115 0 115 0 0 -812z m2750 -63 l0 -875 -605 0
c-333 0 -605 2 -605 5 0 8 136 112 225 171 189 127 352 216 574 318 89 40 168
79 176 86 13 11 15 88 15 591 l0 579 110 0 110 0 0 -875z m-650 386 l0 -189
-29 11 c-40 15 -110 -2 -217 -52 -122 -58 -224 -132 -325 -239 l-89 -94 0 186
c0 102 2 186 5 186 2 0 15 -5 29 -11 37 -17 73 3 129 72 94 117 270 237 414
284 29 9 55 21 58 26 20 31 25 -8 25 -180z m0 -355 l0 -74 -132 -71 c-173 -94
-297 -183 -425 -305 l-103 -98 0 121 0 121 25 -16 c39 -25 64 -12 145 77 118
131 279 238 418 280 23 7 47 18 53 26 6 7 13 13 15 13 2 0 4 -33 4 -74z"/>
<path d="M1890 3393 c-181 -17 -358 -55 -395 -85 -35 -27 -32 -82 6 -110 26
-20 27 -20 140 6 280 62 495 62 751 -1 101 -24 109 -25 132 -9 34 21 42 56 22
95 -12 23 -28 34 -68 46 -171 50 -418 75 -588 58z"/>
<path d="M1900 2924 c-171 -16 -379 -61 -411 -90 -29 -26 -22 -81 12 -106 26
-20 27 -20 145 6 225 49 378 57 576 31 62 -8 147 -24 187 -35 88 -25 115 -21
137 21 19 37 6 79 -29 98 -93 47 -447 90 -617 75z"/>
<path d="M1865 2444 c-222 -30 -341 -58 -372 -87 -45 -40 -19 -118 39 -120 13
0 79 12 148 27 94 21 165 29 285 33 177 6 281 -4 431 -42 108 -27 134 -23 153
23 10 25 10 36 -1 59 -27 57 -233 103 -488 108 -91 2 -178 1 -195 -1z"/>
<path d="M2251 514 c-24 -30 -26 -43 -10 -78 20 -44 47 -47 338 -44 l273 3 19
24 c26 32 24 73 -4 99 -23 22 -29 22 -309 22 l-287 0 -20 -26z"/>
</g>
</svg>
