<?xml version="1.0" standalone="no"?>
<!DOCTYPE svg PUBLIC "-//W3C//DTD SVG 20010904//EN"
 "http://www.w3.org/TR/2001/REC-SVG-20010904/DTD/svg10.dtd">
<svg version="1.0" xmlns="http://www.w3.org/2000/svg"
 width="512.000000pt" height="512.000000pt" viewBox="0 0 512.000000 512.000000"
 preserveAspectRatio="xMidYMid meet">

<g transform="translate(0.000000,512.000000) scale(0.100000,-0.100000)"
fill="#000000" stroke="none">
<path d="M833 5095 c-106 -33 -201 -123 -245 -232 l-23 -58 -3 -2210 c-1
-1473 1 -2228 8 -2265 23 -123 105 -231 217 -287 l58 -28 1715 0 1715 0 58 28
c111 55 194 163 217 286 14 74 14 4388 0 4462 -23 123 -104 230 -215 285 l-60
29 -1700 2 c-1392 1 -1708 -1 -1742 -12z m887 -172 c1 -104 61 -187 154 -212
29 -9 231 -11 711 -9 l670 3 42 24 c66 38 96 89 102 174 l6 72 410 0 410 0 51
-27 c29 -15 66 -44 83 -65 65 -78 61 52 59 -2043 l-3 -1905 -1855 0 -1855 0
-3 1895 c-2 1358 0 1910 8 1947 13 58 52 119 101 154 62 44 100 48 517 48
l392 1 0 -57z m1550 8 c0 -33 -6 -56 -19 -72 l-19 -24 -666 0 c-758 0 -696 -8
-704 89 l-4 56 706 0 706 0 0 -49z m1150 -4356 c0 -251 -10 -296 -82 -360 -84
-76 79 -70 -1778 -70 -1857 0 -1694 -6 -1778 70 -72 64 -82 109 -82 360 l0
215 1860 0 1860 0 0 -215z"/>
<path d="M3376 4090 c-122 -39 -294 -126 -400 -202 -86 -60 -252 -215 -310
-287 l-27 -33 -122 26 c-229 49 -433 63 -647 46 -142 -11 -350 -45 -466 -75
-42 -11 -111 -15 -250 -15 -181 0 -192 -1 -210 -21 -18 -20 -19 -51 -19 -994
0 -943 1 -974 19 -994 l19 -21 1598 0 1598 0 20 26 c21 27 21 31 21 993 0 819
-2 970 -14 987 -13 17 -31 19 -183 24 l-168 5 -5 188 c-5 172 -7 190 -24 203
-11 8 -32 14 -47 14 -23 0 -162 -36 -211 -55 -16 -7 -18 1 -18 82 0 73 -3 93
-17 105 -32 27 -48 26 -137 -2z m24 -285 l0 -145 -26 16 c-22 15 -32 16 -77 5
-66 -15 -217 -87 -296 -140 -65 -44 -177 -149 -229 -216 l-32 -40 0 91 0 91
63 74 c137 160 313 291 504 375 43 18 81 34 86 34 4 0 7 -65 7 -145z m290
-739 l0 -733 -212 -106 c-298 -147 -549 -301 -683 -419 -49 -43 -55 -45 -55
-20 0 11 28 52 63 93 159 186 382 354 604 455 51 23 100 47 108 54 13 11 15
99 15 686 l0 673 78 25 c42 14 78 25 80 26 1 0 2 -330 2 -734z m-290 329 l0
-195 -26 17 c-23 14 -32 15 -72 4 -163 -43 -325 -144 -465 -291 l-97 -101 0
190 0 189 28 -13 c15 -8 37 -12 48 -9 11 3 60 48 108 100 48 51 116 114 151
139 68 49 184 106 251 124 23 6 47 18 54 26 7 8 14 15 16 15 2 0 4 -88 4 -195z
m-1070 96 c36 -6 109 -21 163 -33 l97 -21 0 -765 0 -764 -27 7 c-337 86 -759
86 -1096 0 l-27 -7 2 763 3 763 50 13 c58 14 208 40 310 53 89 11 440 5 525
-9z m-1030 -889 c0 -715 2 -810 16 -830 20 -29 50 -28 169 3 214 55 412 75
651 63 145 -6 207 -15 362 -49 l92 -21 0 -59 0 -59 -765 0 -765 0 0 880 0 880
120 0 120 0 0 -808z m2760 -72 l0 -880 -615 0 c-338 0 -615 3 -615 6 0 19 214
175 362 265 139 84 400 219 531 275 45 19 88 42 95 51 9 13 12 147 12 590 l0
573 115 0 115 0 0 -880z m-660 390 l0 -200 -26 16 c-34 23 -96 9 -222 -51
-144 -68 -274 -171 -375 -295 l-37 -45 0 197 0 197 28 -14 c15 -8 36 -12 47
-9 11 4 62 51 113 105 111 117 207 184 335 234 52 20 103 43 113 50 11 8 20
15 22 15 1 0 2 -90 2 -200z m0 -359 l0 -79 -102 -52 c-176 -88 -332 -199 -490
-348 l-68 -64 0 121 c0 117 1 121 19 111 48 -25 70 -14 170 91 127 135 222
198 389 259 34 12 65 27 68 31 11 19 14 6 14 -70z"/>
<path d="M1765 3375 c-164 -26 -265 -55 -281 -81 -18 -26 -12 -75 12 -95 17
-14 73 -8 204 21 65 14 146 23 256 27 182 6 305 -5 444 -43 100 -26 135 -21
146 22 18 70 -13 94 -171 130 -105 24 -145 28 -320 30 -138 2 -228 -1 -290
-11z"/>
<path d="M1765 2905 c-164 -26 -265 -55 -281 -81 -18 -26 -12 -75 12 -95 17
-14 73 -8 204 21 65 14 146 23 256 27 182 6 305 -5 444 -43 100 -26 135 -21
146 22 18 70 -13 94 -171 130 -105 24 -145 28 -320 30 -138 2 -228 -1 -290
-11z"/>
<path d="M1895 2439 c-124 -8 -359 -53 -392 -74 -12 -8 -24 -24 -28 -35 -10
-31 13 -79 42 -86 13 -4 81 6 152 20 231 48 477 50 671 5 141 -32 168 -34 190
-14 24 22 26 77 5 99 -22 22 -101 44 -235 66 -141 23 -261 28 -405 19z"/>
<path d="M2260 520 c-26 -26 -26 -81 -2 -103 16 -15 52 -17 303 -17 156 0 289
4 295 8 15 10 34 47 34 67 0 9 -11 27 -25 40 l-24 25 -281 0 c-267 0 -281 -1
-300 -20z"/>
</g>
</svg>
